HIERARCHY
ROOT Hips
{
	OFFSET 0.000000 0.000000 0.000000
	CHANNELS 6 Xposition Yposition Zposition Zrotation Yrotation Xrotation 
	JOINT LHipJoint
	{
		OFFSET 0.000000 0.000000 0.000000
		CHANNELS 3 Zrotation Yrotation Xrotation
		JOINT LeftUpLeg
		{
			OFFSET 1.363060 -1.794630 0.839290
			CHANNELS 3 Zrotation Yrotation Xrotation
			JOINT LeftLeg
			{
				OFFSET 2.448110 -6.726130 0.000000
				CHANNELS 3 Zrotation Yrotation Xrotation
				JOINT LeftFoot
				{
					OFFSET 2.562200 -7.039590 0.000000
					CHANNELS 3 Zrotation Yrotation Xrotation
					JOINT LeftToeBase
					{
						OFFSET 0.157640 -0.433110 2.322550
						CHANNELS 3 Zrotation Yrotation Xrotation
						End Site
						{
							OFFSET 0.000000 0.000000 0.000000
						}
					}
				}
			}
		}
	}
	JOINT RHipJoint
	{
		OFFSET 0.000000 0.000000 0.000000
		CHANNELS 3 Zrotation Yrotation Xrotation
		JOINT RightUpLeg
		{
			OFFSET -1.305520 -1.794630 0.839290
			CHANNELS 3 Zrotation Yrotation Xrotation
			JOINT RightLeg
			{
				OFFSET -2.542530 -6.985550 0.000000
				CHANNELS 3 Zrotation Yrotation Xrotation
				JOINT RightFoot
				{
					OFFSET -2.568260 -7.056230 0.000000
					CHANNELS 3 Zrotation Yrotation Xrotation
					JOINT RightToeBase
					{
						OFFSET -0.164730 -0.452590 2.363150
						CHANNELS 3 Zrotation Yrotation Xrotation
						End Site
						{
							OFFSET 0.000000 0.000000 0.000000
						}
					}
				}
			}
		}
	}
	JOINT LowerBack
	{
		OFFSET 0.000000 0.000000 0.000000
		CHANNELS 3 Zrotation Yrotation Xrotation
		JOINT Spine
		{
			OFFSET 0.028270 2.035590 -0.193380
			CHANNELS 3 Zrotation Yrotation Xrotation
			JOINT Spine1
			{
				OFFSET 0.056720 2.048850 -0.042750
				CHANNELS 3 Zrotation Yrotation Xrotation
				JOINT Neck
				{
					OFFSET 0.000000 0.000000 0.000000
					CHANNELS 3 Zrotation Yrotation Xrotation
					JOINT Neck1
					{
						OFFSET -0.054170 1.746240 0.172020
						CHANNELS 3 Zrotation Yrotation Xrotation
						JOINT Head
						{
							OFFSET 0.104070 1.761360 -0.123970
							CHANNELS 3 Zrotation Yrotation Xrotation
							End Site
							{
								OFFSET 0.000000 0.000000 0.000000
							}
						}
					}
				}
				JOINT LeftShoulder
				{
					OFFSET 0.000000 0.000000 0.000000
					CHANNELS 3 Zrotation Yrotation Xrotation
					JOINT LeftArm
					{
						OFFSET 3.362410 1.200890 -0.311210
						CHANNELS 3 Zrotation Yrotation Xrotation
						JOINT LeftForeArm
						{
							OFFSET 4.983000 -0.000000 -0.000000
							CHANNELS 3 Zrotation Yrotation Xrotation
							JOINT LeftHand
							{
								OFFSET 3.483560 -0.000000 -0.000000
								CHANNELS 3 Zrotation Yrotation Xrotation
								JOINT LeftFingerBase
								{
									OFFSET 0.000000 0.000000 0.000000
									CHANNELS 3 Zrotation Yrotation Xrotation
									JOINT LeftHandIndex1
									{
										OFFSET 0.715260 -0.000000 -0.000000
										CHANNELS 3 Zrotation Yrotation Xrotation
										End Site
										{
											OFFSET 0.000000 0.000000 0.000000
										}
									}
								}
								JOINT LThumb
								{
									OFFSET 0.000000 0.000000 0.000000
									CHANNELS 3 Zrotation Yrotation Xrotation
									End Site
									{
										OFFSET 0.000000 0.000000 0.000000
									}
								}
							}
						}
					}
				}
				JOINT RightShoulder
				{
					OFFSET 0.000000 0.000000 0.000000
					CHANNELS 3 Zrotation Yrotation Xrotation
					JOINT RightArm
					{
						OFFSET -3.136600 1.374050 -0.404650
						CHANNELS 3 Zrotation Yrotation Xrotation
						JOINT RightForeArm
						{
							OFFSET -5.241900 -0.000000 -0.000000
							CHANNELS 3 Zrotation Yrotation Xrotation
							JOINT RightHand
							{
								OFFSET -3.444170 -0.000000 -0.000000
								CHANNELS 3 Zrotation Yrotation Xrotation
								JOINT RightFingerBase
								{
									OFFSET 0.000000 0.000000 0.000000
									CHANNELS 3 Zrotation Yrotation Xrotation
									JOINT RightHandIndex1
									{
										OFFSET -0.622530 -0.000000 -0.000000
										CHANNELS 3 Zrotation Yrotation Xrotation
										End Site
										{
											OFFSET 0.000000 0.000000 0.000000
										}
									}
								}
								JOINT RThumb
								{
									OFFSET 0.000000 0.000000 0.000000
									CHANNELS 3 Zrotation Yrotation Xrotation
									End Site
									{
										OFFSET 0.000000 0.000000 0.000000
									}
								}
							}
						}
					}
				}
			}
		}
	}
}
MOTION
Frames: 10
Frame Time: 0.008333
-11.921138 17.175552 -1.121717 21.003564 87.992926 22.414265 -10.544877 1.467996 2.402628 -12.236476 8.189933 -22.925680 -2.422895 -0.367826 10.794361 0.731451 4.910473 -1.179178 0.698900 -0.000000 -31.590300 10.155781 -4.758426 -0.528188 -1.409500 -12.520149 9.140217 0.529313 -2.588237 27.808285 0.395301 17.634327 23.942577 8.854100 -0.000001 -88.237299 -4.157384 0.734299 -4.089152 -1.378904 0.883276 -3.035598 -5.049231 0.821317 3.055760 8.282233 -13.695297 -10.720913 -1.514954 -0.081262 -0.787782 0.000000 0.000000 0.000000 -3.215181 28.594009 0.880058 -70.548153 24.137854 -12.780574 -4.790938 -17.647956 -0.020001 -4.658178 5.151754 -0.207180 -0.138293 -0.091747 -0.000000 0.000000 0.000000 0.000000 0.000000 0.000000 0.000000 9.280472 -7.656462 0.059533 51.325742 4.702339 -2.746973 2.807430 38.891904 0.018064 5.120003 4.941294 0.225134 0.057921 -0.130682 -0.000000 0.000000 0.000000 0.000000 0.000000 0.000000 0.000000 
-11.764966 17.165388 -1.123673 26.390588 88.041588 27.712597 -10.475596 1.458994 2.310342 -12.401126 8.257485 -22.819524 -2.397163 -0.308863 11.986585 0.729634 4.910853 -1.371563 0.672500 -0.000001 -30.083100 10.411497 -4.818648 -0.518599 -2.179417 -12.890271 8.007597 0.397956 -2.699636 30.204057 0.243518 18.877184 25.752720 10.061900 0.000000 -87.691500 -4.547407 0.568966 -4.038429 -1.451957 0.747587 -3.031665 -5.069724 0.684597 3.035241 8.372247 -13.687308 -10.749031 -1.527282 -0.081798 -0.796962 0.000000 0.000000 0.000000 -3.171040 28.487977 0.903552 -70.372363 23.841618 -12.703168 -4.793315 -17.563497 -0.020016 -4.618263 5.224112 -0.208179 -0.138294 -0.090586 -0.000000 0.000000 0.000000 0.000000 0.000000 0.000000 0.000000 9.410589 -7.687552 0.036655 51.629853 4.524898 -2.734650 2.801011 38.961249 0.018015 5.162947 4.917642 0.225934 0.057558 -0.129634 -0.000000 0.000000 0.000000 0.000000 0.000000 0.000000 0.000000 
-11.611046 17.156847 -1.124801 30.685123 88.054830 31.920198 -10.378342 1.474545 2.223626 -12.565041 8.340918 -22.700464 -2.372496 -0.250714 13.120360 0.737484 4.952929 -1.623081 0.644200 -0.000000 -28.504100 10.678005 -4.833721 -0.515543 -2.874869 -13.252782 6.827873 0.265244 -2.791157 32.633827 0.075744 19.836556 27.616437 11.190500 0.000000 -86.351900 -4.896173 0.415214 -3.980656 -1.518356 0.620276 -3.026003 -5.091240 0.556705 3.015178 8.443922 -13.681575 -10.768543 -1.540768 -0.082531 -0.803817 0.000000 0.000000 0.000000 -3.142091 28.368100 0.922082 -70.165138 23.476057 -12.601619 -4.791525 -17.481902 -0.019940 -4.536277 5.293804 -0.206977 -0.138314 -0.089197 -0.000000 0.000000 0.000000 0.000000 0.000000 0.000000 0.000000 9.523133 -7.720214 0.011739 51.980248 4.348526 -2.744671 2.796622 39.006189 0.017949 5.199177 4.881138 0.225836 0.057379 -0.128539 -0.000000 0.000000 0.000000 0.000000 0.000000 0.000000 0.000000 
-11.459412 17.150172 -1.125537 34.141436 88.046548 35.288371 -10.270520 1.506033 2.147756 -12.717755 8.407239 -22.535530 -2.346945 -0.196551 14.161686 0.755626 5.047091 -1.927942 0.615199 0.000000 -26.898099 10.936217 -4.810033 -0.525647 -3.488005 -13.618772 5.614607 0.135682 -2.868502 35.081132 -0.103199 20.393065 29.469961 12.123000 -0.000000 -84.193500 -5.210328 0.271613 -3.914773 -1.578562 0.500547 -3.018035 -5.111922 0.436769 2.996703 8.496836 -13.684486 -10.779901 -1.554708 -0.083388 -0.808462 0.000000 0.000000 0.000000 -3.126061 28.236236 0.935766 -69.930239 23.035291 -12.478183 -4.785572 -17.398067 -0.019752 -4.406645 5.354192 -0.203073 -0.138384 -0.087518 -0.000000 0.000000 0.000000 0.000000 0.000000 0.000000 0.000000 9.617653 -7.762787 -0.015519 52.368542 4.171357 -2.763875 2.793730 39.030276 0.017856 5.226673 4.832319 0.224837 0.057363 -0.127359 -0.000000 0.000000 0.000000 0.000000 0.000000 0.000000 0.000000 
-11.310035 17.145529 -1.126346 36.914476 88.029298 37.966748 -10.163461 1.546761 2.085501 -12.847490 8.433210 -22.295235 -2.319495 -0.148844 15.084962 0.783697 5.194908 -2.281420 0.584900 0.000000 -25.310000 11.174200 -4.753886 -0.554942 -4.013102 -13.999517 4.386237 0.011279 -2.937525 37.524958 -0.288906 20.423026 31.227917 12.720400 -0.000000 -81.258500 -5.489187 0.137096 -3.837133 -1.631958 0.387514 -3.006570 -5.130270 0.323983 2.981556 8.531642 -13.700475 -10.784804 -1.568305 -0.084264 -0.811383 0.000000 0.000000 0.000000 -3.119241 28.100107 0.945221 -69.672918 22.508899 -12.340064 -4.775606 -17.301890 -0.019430 -4.225995 5.397566 -0.195964 -0.138525 -0.085461 -0.000000 0.000000 0.000000 0.000000 0.000000 0.000000 0.000000 9.694351 -7.821084 -0.045414 52.782666 3.992601 -2.773354 2.791838 39.037195 0.017731 5.244399 4.775319 0.222937 0.057474 -0.126061 -0.000000 0.000000 0.000000 0.000000 0.000000 0.000000 0.000000 
-11.162867 17.143181 -1.127687 39.008406 88.000383 39.962853 -10.065448 1.591771 2.041267 -12.947579 8.394205 -21.961424 -2.289464 -0.110321 15.861016 0.823085 5.410092 -2.674315 0.554399 -0.000000 -23.781000 11.384058 -4.669438 -0.603804 -4.444550 -14.389968 3.135824 -0.110135 -3.002774 39.959278 -0.481479 19.805721 32.824412 12.848700 -0.000000 -77.726000 -5.731064 0.014781 -3.752514 -1.678521 0.284095 -2.994147 -5.147299 0.221100 2.963384 8.549659 -13.727033 -10.779675 -1.582973 -0.085360 -0.811444 0.000000 0.000000 0.000000 -3.138269 27.933383 0.948490 -69.389477 21.937722 -12.173932 -4.760766 -17.234838 -0.018972 -3.998634 5.415626 -0.185554 -0.138644 -0.083225 -0.000000 0.000000 0.000000 0.000000 0.000000 0.000000 0.000000 9.756991 -7.889793 -0.074514 53.210891 3.793269 -2.769995 2.791362 39.045163 0.017576 5.261211 4.702102 0.220237 0.057668 -0.124580 -0.000000 0.000000 0.000000 0.000000 0.000000 0.000000 0.000000 
-11.017844 17.143034 -1.129957 40.532784 87.973223 41.374620 -9.982083 1.636780 2.011607 -13.008826 8.292830 -21.514713 -2.257188 -0.081255 16.486286 0.871013 5.673581 -3.104936 0.520400 0.000000 -22.350300 11.561226 -4.562667 -0.677610 -4.784136 -14.802631 1.898151 -0.229336 -3.068443 42.345096 -0.679642 18.468538 34.149319 12.400800 0.000000 -73.829699 -5.933230 -0.098084 -3.650941 -1.717198 0.187741 -2.976881 -5.160970 0.125902 2.950136 8.555164 -13.771189 -10.771687 -1.596718 -0.086365 -0.810782 0.000000 0.000000 0.000000 -3.164015 27.774213 0.948057 -69.093084 21.272795 -11.999671 -4.742264 -17.148587 -0.018352 -3.723240 5.399331 -0.171740 -0.138817 -0.080553 -0.000000 0.000000 0.000000 0.000000 0.000000 0.000000 0.000000 9.808892 -7.978704 -0.105245 53.635256 3.590064 -2.714792 2.791467 39.046213 0.017386 5.271667 4.628396 0.217236 0.057904 -0.122887 -0.000000 0.000000 0.000000 0.000000 0.000000 0.000000 0.000000 
-10.874877 17.145287 -1.133514 41.371172 87.937017 42.091937 -9.919912 1.678590 1.997934 -13.028793 8.122572 -20.954669 -2.222467 -0.062776 16.945896 0.928343 5.993289 -3.562751 0.483400 0.000000 -21.049699 11.699969 -4.436788 -0.771308 -5.023289 -15.211702 0.664637 -0.350227 -3.136601 44.669818 -0.887053 16.359610 35.123324 11.315500 -0.000000 -69.852799 -6.094476 -0.197470 -3.540129 -1.748195 0.102205 -2.958314 -5.173109 0.041868 2.933890 8.550299 -13.825069 -10.756264 -1.611525 -0.087549 -0.807962 0.000000 0.000000 0.000000 -3.215734 27.592066 0.941881 -68.778014 20.566534 -11.796648 -4.719396 -17.093696 -0.017585 -3.409803 5.340999 -0.154924 -0.138933 -0.077725 -0.000000 0.000000 0.000000 0.000000 0.000000 0.000000 0.000000 9.854591 -8.075827 -0.133528 54.044906 3.362523 -2.608117 2.792924 39.058353 0.017173 5.288106 4.546755 0.214033 0.058121 -0.120931 -0.000000 0.000000 0.000000 0.000000 0.000000 0.000000 0.000000 
-10.733905 17.149808 -1.138566 41.563409 87.897114 42.147881 -9.882100 1.714992 1.995094 -13.004100 7.899515 -20.280216 -2.185870 -0.053840 17.248795 0.992279 6.349689 -4.043449 0.440700 -0.000001 -19.899100 11.798708 -4.296628 -0.885131 -5.164642 -15.614653 -0.539941 -0.473700 -3.208740 46.895670 -1.104586 13.525657 35.649385 9.620100 0.000001 -66.080900 -6.214137 -0.285377 -3.414329 -1.771058 0.025664 -2.936022 -5.182712 -0.032632 2.920134 8.539906 -13.891489 -10.738776 -1.626224 -0.088710 -0.804582 0.000000 0.000000 0.000000 -3.280219 27.415040 0.931823 -68.454883 19.786892 -11.579770 -4.693425 -17.037596 -0.016671 -3.063969 5.236186 -0.135705 -0.139040 -0.074586 -0.000000 0.000000 0.000000 0.000000 0.000000 0.000000 0.000000 9.898787 -8.185601 -0.160879 54.425024 3.125159 -2.419621 2.795365 39.074222 0.016935 5.309478 4.469311 0.211229 0.058271 -0.118678 -0.000000 0.000000 0.000000 0.000000 0.000000 0.000000 0.000000 
-10.594821 17.156546 -1.145270 41.064217 87.848424 41.498458 -9.871860 1.745026 1.999885 -12.934777 7.638739 -19.501067 -2.147809 -0.053454 17.401144 1.061267 6.733088 -4.538333 0.391600 0.000000 -18.910700 11.855481 -4.146256 -1.014795 -5.207083 -15.992953 -1.708841 -0.600552 -3.285439 48.996810 -1.332247 10.077735 35.646267 7.419100 -0.000000 -62.684399 -6.292673 -0.361320 -3.275479 -1.785942 -0.041391 -2.910892 -5.190461 -0.097198 2.907130 8.526635 -13.964409 -10.718613 -1.641497 -0.089920 -0.800454 0.000000 0.000000 0.000000 -3.359879 27.239502 0.918098 -68.126035 18.948194 -11.347647 -4.664930 -16.990594 -0.015634 -2.697213 5.084106 -0.115184 -0.139114 -0.071215 -0.000000 0.000000 0.000000 0.000000 0.000000 0.000000 0.000000 9.944968 -8.300868 -0.186242 54.767520 2.874243 -2.144179 2.799110 39.097570 0.016683 5.343809 4.396995 0.209223 0.058281 -0.116095 -0.000000 0.000000 0.000000 0.000000 0.000000 0.000000 0.000000 
